<svg width="1104" height="950" viewBox="0 0 1104 950" fill="none" xmlns="http://www.w3.org/2000/svg">
<g clip-path="url(#clip0)">
<path d="M137.549 208.906L76.6041 936.429H0L57.0025 321.992L137.549 208.906Z" fill="#EAAC08"/>
<path d="M1007.8 327.281L1052.97 936.428H1104L1055.9 407.329L1007.8 327.281Z" fill="#EAAC08"/>
<path d="M371.305 139.237L221.926 936.429H542.086V0L371.305 139.237ZM510.769 786.712L269.692 866.76L283.435 783.218L510.769 701.472V786.712ZM510.769 661.449L286.814 743.194L300.559 659.651L510.769 576.11V661.449ZM510.769 536.085L307.43 614.338L321.174 530.795L510.769 450.748V536.085ZM510.769 412.52L331.988 494.365L345.731 410.822L510.769 327.281V412.52ZM510.769 285.46L352.604 369.001L366.347 285.46L510.769 200.121V285.46ZM510.769 161.894L373.219 243.639L392.82 161.894L510.657 76.5552V161.894H510.769Z" fill="#EAAC08"/>
<path d="M697.323 104.402L559.773 0V936.429H870.134L697.323 104.402ZM579.488 76.5552L681.664 140.933L700.364 215.792L579.488 153.11V76.5552ZM579.488 200.221L700.364 252.023L715.009 323.787L579.488 276.776V200.221ZM579.488 323.787L715.009 369.102L733.598 447.353L579.488 400.342V323.787ZM579.488 447.254L733.598 494.265L753.311 585.992L579.488 532.493V447.254ZM579.488 570.92L758.269 627.513L777.532 713.05L579.488 654.063V570.92ZM579.488 694.486L777.532 758.065L799.724 837.915L579.488 779.425V694.486Z" fill="#EAAC08"/>
<path d="M153.208 215.891L90.3477 936.428H208.183L224.405 847.596L115.695 822.344L119.638 781.422L231.052 811.665L236.234 783.418L121.665 753.973L125.608 713.05L242.768 747.885L247.95 719.239L126.847 687.798L130.79 646.876L254.484 684.106L259.778 655.061L133.494 620.526L137.437 579.604L266.198 620.226L271.606 590.782L137.437 553.153L141.38 512.231L274.874 555.349V572.817L300.445 433.48V271.585L153.208 215.891ZM277.915 524.807L146.336 482.986L150.279 442.064L277.915 488.176V524.807ZM280.844 457.734L152.87 417.011L156.813 376.088L280.844 421.103V457.734ZM283.885 390.761L160.08 351.634L164.023 310.712L283.885 354.229V390.761ZM286.814 323.787L163.009 284.661L166.952 243.738L286.814 287.256V323.787Z" fill="#EAAC08"/>
<path d="M997.882 318.498L850.53 370.7L824.959 652.666L838.702 712.651L1002.84 676.72L1005.77 724.13L848.166 754.074L854.812 783.318L1007.68 756.37L1012.41 807.472L864.5 825.839L889.847 936.429H1035.28L997.882 318.498ZM863.711 399.046L984.475 359.72L986.616 404.634L860.444 438.371L863.711 399.046ZM857.177 461.827L990.671 425.197L993.262 465.52L853.798 501.153L857.177 461.827ZM850.53 524.508L993.262 485.182L995.403 527.803L847.263 563.833L850.53 524.508ZM843.996 587.289L997.544 547.964L999.346 591.282L840.731 626.615L843.996 587.289ZM834.196 689.297L837.464 650.071L999.458 610.745L1002.95 652.167L834.196 689.297Z" fill="#EAAC08"/>
</g>
<defs>
<clipPath id="clip0">
<rect width="1104" height="950" fill="white"/>
</clipPath>
</defs>
</svg>
